 <svg version="1.0" xmlns="http://www.w3.org/2000/svg" width="700.000000pt" height="541.000000pt" viewBox="0 0 700.000000 541.000000" preserveAspectRatio="xMidYMid meet">
<metadata>
Created by potrace 1.12, written by Peter Selinger 2001-2015
</metadata>
<g transform="translate(0.000000,541.000000) scale(0.100000,-0.100000)" fill="none" fill="#000000">
<path d="M676 3382 c-7 -12 344 -1326 357 -1334 7 -4 67 -8 134 -8 107 0 123
2 131 18 5 9 54 200 108 424 54 224 101 408 104 408 3 0 52 -188 109 -417 57
-230 109 -421 115 -425 20 -14 242 -9 254 5 10 12 362 1301 362 1325 0 10 -37
12 -152 10 l-151 -3 -101 -433 c-64 -275 -103 -427 -108 -415 -4 10 -48 189
-98 398 -50 209 -96 397 -101 418 l-10 37 -114 0 c-63 0 -116 -3 -118 -7 -3
-5 -51 -200 -108 -435 -56 -235 -104 -426 -105 -425 -3 3 -204 853 -204 862 0
8 -298 6 -304 -3z m380 -498 c101 -431 119 -492 141 -470 3 3 56 214 117 468
l111 463 87 3 c76 2 87 1 91 -15 3 -10 54 -218 112 -463 59 -245 113 -451 121
-459 11 -12 14 -11 23 10 6 13 54 211 106 439 53 228 101 432 106 453 l10 37
111 0 110 0 -5 -27 c-4 -16 -80 -300 -170 -633 l-164 -605 -104 0 -104 0 -114
463 c-94 385 -116 462 -130 460 -12 -2 -39 -97 -119 -423 -57 -231 -109 -438
-115 -460 l-12 -40 -99 -3 c-55 -1 -103 1 -107 5 -4 4 -80 283 -169 618 -88
336 -163 618 -166 628 -5 15 5 17 109 17 l114 0 109 -466z"></path>
<path d="M4001 3368 c-5 -13 -124 -308 -265 -657 -142 -348 -256 -641 -254
-650 3 -14 22 -16 158 -16 l155 0 46 125 47 125 245 3 245 2 43 -117 c23 -65
47 -124 52 -131 7 -9 48 -12 161 -10 143 3 151 4 153 23 2 11 -113 313 -255
670 l-258 650 -132 3 c-130 3 -132 2 -141 -20z m492 -646 c136 -345 247 -630
247 -634 0 -5 -53 -8 -119 -8 l-118 0 -38 103 c-21 56 -44 114 -52 130 l-14
27 -269 0 -269 0 -19 -52 c-11 -29 -30 -82 -42 -118 -13 -36 -28 -71 -33 -77
-11 -15 -237 -19 -237 -5 0 9 496 1238 506 1254 3 4 51 8 107 8 l102 0 248
-628z"></path>
<path d="M4106 3048 c-32 -77 -176 -501 -176 -519 0 -18 8 -19 200 -19 155 0
202 3 206 13 7 18 -188 550 -204 555 -7 2 -19 -11 -26 -30z m103 -266 c41
-114 76 -213 79 -219 3 -10 -31 -13 -152 -13 -110 0 -156 3 -156 11 0 17 144
429 150 429 3 0 38 -94 79 -208z"></path>
<path d="M4890 3275 l0 -116 108 3 107 3 3 113 3 112 -111 0 -110 0 0 -115z
m180 0 l0 -75 -70 0 -70 0 0 75 0 75 70 0 70 0 0 -75z"></path>
<path d="M6107 3384 c-4 -4 -7 -106 -7 -226 l0 -218 -50 39 c-74 58 -147 83
-261 89 -154 7 -280 -41 -385 -146 -102 -103 -151 -246 -141 -415 10 -176 85
-312 223 -408 85 -58 144 -74 284 -74 149 0 209 19 290 91 l50 46 0 -55 c0
-66 2 -67 115 -67 57 0 86 4 94 14 8 9 10 194 9 672 l-3 659 -106 3 c-58 1
-108 -1 -112 -4z m181 -666 l-3 -633 -67 -3 -68 -3 0 81 c0 66 -3 82 -17 87
-10 4 -19 1 -21 -7 -3 -8 -28 -38 -55 -67 -71 -75 -139 -105 -252 -111 -157
-8 -268 31 -366 129 -92 92 -139 210 -139 354 0 203 95 360 267 443 77 36 80
37 198 37 115 0 123 -1 187 -33 46 -22 83 -50 117 -88 27 -31 54 -53 60 -49 7
4 11 86 11 251 l0 244 75 0 75 0 -2 -632z"></path>
<path d="M5684 2884 c-99 -30 -196 -129 -226 -227 -20 -66 -15 -183 11 -249
29 -75 97 -150 169 -185 51 -25 68 -28 157 -28 89 0 106 3 157 28 74 36 150
119 178 195 18 47 21 72 18 142 -7 143 -72 246 -195 307 -70 34 -190 41 -269
17z m226 -43 c70 -27 130 -78 165 -142 28 -50 30 -62 30 -154 0 -85 -3 -106
-23 -143 -73 -137 -232 -203 -385 -158 -73 21 -155 95 -188 168 -32 74 -33
192 -1 263 37 82 115 149 202 176 48 14 148 10 200 -10z"></path>
<path d="M2781 3054 c-188 -50 -335 -207 -376 -401 -18 -86 -18 -130 0 -218
22 -105 68 -190 144 -266 104 -103 217 -149 372 -149 206 0 381 110 472 298
28 57 19 62 -104 62 l-96 0 -39 -52 c-75 -101 -210 -138 -341 -94 -67 22 -140
87 -169 151 -44 92 -78 84 384 87 l407 3 3 69 c10 238 -149 450 -384 511 -72
19 -202 18 -273 -1z m343 -67 c167 -79 276 -245 276 -419 l0 -58 -407 -2 -408
-3 1 -51 c3 -102 90 -212 203 -255 64 -24 171 -29 237 -11 57 17 127 65 159
112 l28 40 68 0 c52 0 69 -3 69 -14 0 -25 -86 -132 -138 -169 -90 -66 -154
-90 -261 -95 -166 -8 -281 37 -387 151 -220 237 -153 621 135 766 86 44 121
51 242 47 98 -2 112 -5 183 -39z"></path>
<path d="M2859 2910 c-142 -25 -265 -142 -272 -258 l-2 -37 335 0 335 0 -3 34
c-4 57 -40 123 -93 173 -77 73 -194 107 -300 88z m186 -60 c54 -23 102 -65
137 -119 54 -85 67 -81 -262 -81 -320 0 -307 -3 -274 63 23 46 82 105 129 129
75 39 191 42 270 8z"></path>
<path d="M4902 3042 c-10 -7 -12 -114 -10 -503 l3 -494 85 -3 c47 -2 95 0 108
3 l22 5 0 494 c0 441 -2 495 -16 500 -23 9 -177 7 -192 -2z m166 -499 l2 -463
-70 0 -70 0 0 465 0 466 68 -3 67 -3 3 -462z"></path>
</g>
</svg>